0
SECTION
2
HEADER
9
$INSUNITS
70
4
9
$ACADVER
1
AC1014
9
$HANDSEED
5
FFFF
0
ENDSEC
0
SECTION
2
TABLES
0
TABLE
2
VPORT
5
8
100
AcDbSymbolTable
0
ENDTAB
0
TABLE
2
LTYPE
5
5
100
AcDbSymbolTable
0
LTYPE
5
14
100
AcDbSymbolTableRecord
100
AcDbLinetypeTableRecord
2
BYBLOCK
70
0
0
LTYPE
5
15
100
AcDbSymbolTableRecord
100
AcDbLinetypeTableRecord
2
BYLAYER
70
0
0
ENDTAB
0
TABLE
2
LAYER
5
2
100
AcDbSymbolTable
70
2
0
LAYER
5
50
100
AcDbSymbolTableRecord
100
AcDbLayerTableRecord
2
0
70
0
6
CONTINUOUS
0
ENDTAB
0
TABLE
2
STYLE
5
3
100
AcDbSymbolTable
70
1
0
STYLE
5
11
100
AcDbSymbolTableRecord
100
AcDbTextStyleTableRecord
2
STANDARD
70
0
0
ENDTAB
0
TABLE
2
VIEW
5
6
100
AcDbSymbolTable
70
0
0
ENDTAB
0
TABLE
2
UCS
5
7
100
AcDbSymbolTable
70
0
0
ENDTAB
0
TABLE
2
APPID
5
9
100
AcDbSymbolTable
70
2
0
APPID
5
12
100
AcDbSymbolTableRecord
100
AcDbRegAppTableRecord
2
ACAD
70
0
0
ENDTAB
0
TABLE
2
DIMSTYLE
5
A
100
AcDbSymbolTable
70
1
0
ENDTAB
0
TABLE
2
BLOCK_RECORD
5
1
100
AcDbSymbolTable
70
1
0
BLOCK_RECORD
5
1F
100
AcDbSymbolTableRecord
100
AcDbBlockTableRecord
2
*MODEL_SPACE
0
BLOCK_RECORD
5
1B
100
AcDbSymbolTableRecord
100
AcDbBlockTableRecord
2
*PAPER_SPACE
0
ENDTAB
0
ENDSEC
0
SECTION
2
BLOCKS
0
BLOCK
5
20
100
AcDbEntity
100
AcDbBlockBegin
2
*MODEL_SPACE
0
ENDBLK
5
21
100
AcDbEntity
100
AcDbBlockEnd
0
BLOCK
5
1C
100
AcDbEntity
100
AcDbBlockBegin
2
*PAPER_SPACE
0
ENDBLK
5
1D
100
AcDbEntity
100
AcDbBlockEnd
0
ENDSEC
0
SECTION
2
ENTITIES
0
CIRCLE
5
100
100
AcDbEntity
8
0
100
AcDbCircle
10
-31.500000000000021
20
-58.174429842651307
30
0
40
2.0000000000000018
210
0
220
-0
230
1
0
CIRCLE
5
101
100
AcDbEntity
8
0
100
AcDbCircle
10
31.499999999999986
20
-81.174429842651179
30
0
40
2.0000000000000018
210
0
220
-0
230
1
0
CIRCLE
5
102
100
AcDbEntity
8
0
100
AcDbCircle
10
-15.000000000000014
20
-69.67442984265125
30
0
40
12.5
210
0
220
-0
230
1
0
CIRCLE
5
103
100
AcDbEntity
8
0
100
AcDbCircle
10
31.499999999999986
20
-58.174429842651307
30
0
40
2.0000000000000018
210
0
220
-0
230
1
0
CIRCLE
5
104
100
AcDbEntity
8
0
100
AcDbCircle
10
-31.500000000000021
20
-81.174429842651179
30
0
40
2.0000000000000018
210
0
220
-0
230
1
0
CIRCLE
5
105
100
AcDbEntity
8
0
100
AcDbCircle
10
14.999999999999986
20
-69.67442984265125
30
0
40
12.5
210
0
220
-0
230
1
0
LWPOLYLINE
5
106
100
AcDbEntity
8
0
100
AcDbPolyline
90
8
70
1
43
0.0
10
31.499999999999986
20
-52.1744298426513
42
-0.41421356237309503
10
37.499999999999993
20
-58.174429842651307
10
37.5
20
-81.174429842651179
42
-0.41421356237309548
10
31.499999999999979
20
-87.174429842651193
10
-31.500000000000021
20
-87.174429842651193
42
-0.41421356237309503
10
-37.500000000000036
20
-81.174429842651179
10
-37.500000000000028
20
-58.174429842651307
42
-0.41421356237309465
10
-31.500000000000028
20
-52.1744298426513
0
CIRCLE
5
107
100
AcDbEntity
8
0
100
AcDbCircle
10
-122.25000000000001
20
78.825570157348807
30
0
40
1.9999999999999929
210
0
220
-0
230
1
0
CIRCLE
5
108
100
AcDbEntity
8
0
100
AcDbCircle
10
-148.50000000000003
20
95.325570157348807
30
0
40
1.5000000000000036
210
0
220
-0
230
1
0
CIRCLE
5
109
100
AcDbEntity
8
0
100
AcDbCircle
10
-165.00000000000003
20
78.825570157348693
30
0
40
1.4999999999999858
210
0
220
-0
230
1
0
CIRCLE
5
110
100
AcDbEntity
8
0
100
AcDbCircle
10
-165.00000000000014
20
95.325570157348807
30
0
40
2.2500000000000142
210
0
220
-0
230
1
0
CIRCLE
5
111
100
AcDbEntity
8
0
100
AcDbCircle
10
-145.98160171779824
20
76.30717187514702
30
0
40
14.018398282201794
210
0
220
-0
230
1
0
CIRCLE
5
112
100
AcDbEntity
8
0
100
AcDbCircle
10
-148.5
20
52.575570157348778
30
0
40
1.9999999999999929
210
0
220
-0
230
1
0
LWPOLYLINE
5
113
100
AcDbEntity
8
0
100
AcDbPolyline
90
10
70
1
43
0.0
10
-119.05697072868989
20
83.905389452614841
42
-0.48152388831309306
10
-118.00735931288071
20
74.582929470229516
10
-144.25735931288071
20
48.332929470229608
42
-0.48152388831309229
10
-153.57981929526591
20
49.382540886038612
10
-170.07981929526611
20
75.632540886038583
42
-0.14121853628316619
10
-171.00000000000009
20
78.825570157348679
10
-171.00000000000017
20
95.325570157348778
42
-0.41421356237309681
10
-165.00000000000014
20
101.32557015734884
10
-148.50000000000006
20
101.32557015734884
42
-0.14121853628316608
10
-145.30697072868998
20
100.40538945261488
0
CIRCLE
5
114
100
AcDbEntity
8
0
100
AcDbCircle
10
148.49999999999997
20
-31.924429842651286
30
0
40
2.0000000000000107
210
0
220
-0
230
1
0
CIRCLE
5
115
100
AcDbEntity
8
0
100
AcDbCircle
10
197.75000000000006
20
-81.174429842651264
30
0
40
1.9999999999999929
210
0
220
-0
230
1
0
CIRCLE
5
116
100
AcDbEntity
8
0
100
AcDbCircle
10
197.75000000000003
20
-58.174429842651271
30
0
40
1.9999999999999929
210
0
220
-0
230
1
0
CIRCLE
5
117
100
AcDbEntity
8
0
100
AcDbCircle
10
160
20
-69.674429842651307
30
0
40
30
210
0
220
-0
230
1
0
CIRCLE
5
118
100
AcDbEntity
8
0
100
AcDbCircle
10
171.50000000000003
20
-107.42442984265132
30
0
40
1.9999999999999929
210
0
220
-0
230
1
0
CIRCLE
5
119
100
AcDbEntity
8
0
100
AcDbCircle
10
148.50000000000003
20
-107.42442984265136
30
0
40
1.9999999999999929
210
0
220
-0
230
1
0
CIRCLE
5
120
100
AcDbEntity
8
0
100
AcDbCircle
10
122.24999999999997
20
-81.174429842651335
30
0
40
2.0000000000000107
210
0
220
-0
230
1
0
CIRCLE
5
121
100
AcDbEntity
8
0
100
AcDbCircle
10
122.24999999999994
20
-58.174429842651342
30
0
40
1.9999999999999929
210
0
220
-0
230
1
0
CIRCLE
5
122
100
AcDbEntity
8
0
100
AcDbCircle
10
171.5
20
-31.92442984265125
30
0
40
1.9999999999999929
210
0
220
-0
230
1
0
LWPOLYLINE
5
123
100
AcDbEntity
8
0
100
AcDbPolyline
90
16
70
1
43
0.0
10
116.25
20
-81.174429842651321
10
116.24999999999994
20
-58.174429842651314
42
-0.1989123673796602
10
118.00735931288072
20
-53.931789155532009
10
144.25735931288071
20
-27.681789155532019
42
-0.19891236737965801
10
148.49999999999997
20
-25.924429842651314
10
171.50000000000006
20
-25.924429842651268
42
-0.19891236737965731
10
175.74264068711929
20
-27.681789155532016
10
201.99264068711929
20
-53.931789155532002
42
-0.19891236737965845
10
203.75
20
-58.174429842651278
10
203.75000000000003
20
-81.174429842651364
42
-0.19891236737965801
10
201.99264068711926
20
-85.417070529770598
10
175.74264068711929
20
-111.66707052977057
42
-0.19891236737966053
10
171.5
20
-113.42442984265131
10
148.49999999999994
20
-113.42442984265132
42
-0.19891236737965801
10
144.25735931288071
20
-111.66707052977057
10
118.00735931288071
20
-85.417070529770598
42
-0.19891236737965823
0
CIRCLE
5
124
100
AcDbEntity
8
0
100
AcDbCircle
10
171.5
20
52.575570157348722
30
0
40
1.9999999999999929
210
0
220
-0
230
1
0
CIRCLE
5
125
100
AcDbEntity
8
0
100
AcDbCircle
10
197.75000000000003
20
78.825570157348736
30
0
40
1.9999999999999929
210
0
220
-0
230
1
0
CIRCLE
5
126
100
AcDbEntity
8
0
100
AcDbCircle
10
140
20
95.325570157348793
30
0
40
1.5000000000000036
210
0
220
-0
230
1
0
CIRCLE
5
127
100
AcDbEntity
8
0
100
AcDbCircle
10
180
20
95.32557015734875
30
0
40
2.2500000000000142
210
0
220
-0
230
1
0
CIRCLE
5
128
100
AcDbEntity
8
0
100
AcDbCircle
10
197.75000000000003
20
95.325570157348778
30
0
40
1.4999999999999858
210
0
220
-0
230
1
0
CIRCLE
5
129
100
AcDbEntity
8
0
100
AcDbCircle
10
122.24999999999997
20
95.325570157348793
30
0
40
2.2499999999999964
210
0
220
-0
230
1
0
LWPOLYLINE
5
130
100
AcDbEntity
8
0
100
AcDbPolyline
90
4
70
1
43
0.0
10
177.32050807568899
20
90.32557015734875
42
-0.57735026918962573
10
185.98076211353347
20
75.325570157348579
42
-0.57735026918962584
10
134.0192378864665
20
75.325570157348594
42
-0.57735026918962551
10
142.67949192431095
20
90.325570157348722
0
CIRCLE
5
131
100
AcDbEntity
8
0
100
AcDbCircle
10
122.24999999999994
20
78.825570157348807
30
0
40
1.9999999999999929
210
0
220
-0
230
1
0
CIRCLE
5
132
100
AcDbEntity
8
0
100
AcDbCircle
10
148.49999999999997
20
52.575570157348757
30
0
40
2.0000000000000107
210
0
220
-0
230
1
0
LWPOLYLINE
5
133
100
AcDbEntity
8
0
100
AcDbPolyline
90
12
70
1
43
0.0
10
175.74264068711929
20
48.33292947022948
42
-0.19891236737965706
10
171.50000000000006
20
46.575570157348729
10
148.49999999999997
20
46.575570157348793
42
-0.19891236737965742
10
144.25735931288071
20
48.33292947022948
10
118.00735931288075
20
74.582929470229516
42
-0.19891236737965742
10
116.25
20
78.825570157348722
10
116.24999999999999
20
95.325570157348793
42
-0.41421356237309503
10
122.24999999999997
20
101.32557015734878
10
197.75
20
101.32557015734875
42
-0.41421356237309592
10
203.75
20
95.325570157348793
10
203.75
20
78.825570157348693
42
-0.19891236737965512
10
201.99264068711929
20
74.582929470229487
0
CIRCLE
5
134
100
AcDbEntity
8
0
100
AcDbCircle
10
-148.5
20
-31.924429842651257
30
0
40
1.9999999999999929
210
0
220
-0
230
1
0
CIRCLE
5
135
100
AcDbEntity
8
0
100
AcDbCircle
10
-122.25000000000001
20
-58.174429842651278
30
0
40
1.9999999999999929
210
0
220
-0
230
1
0
LWPOLYLINE
5
136
100
AcDbEntity
8
0
100
AcDbPolyline
90
4
70
1
43
0.0
10
-120.1313485703662
20
-52.560935732944685
42
-1.5493919499261379
10
-127.86349410970659
20
-60.293081272285114
42
0.21549920950447016
10
-150.61865142963381
20
-37.537923952357858
42
-1.5493919499261448
10
-142.88650589029342
20
-29.805778413017443
42
0.21549920950447096
0
CIRCLE
5
137
100
AcDbEntity
8
0
100
AcDbCircle
10
288.5
20
-81.174429842651179
30
0
40
1.9999999999999929
210
0
220
-0
230
1
0
CIRCLE
5
138
100
AcDbEntity
8
0
100
AcDbCircle
10
288.5
20
-58.174429842651293
30
0
40
1.9999999999999929
210
0
220
-0
230
1
0
LWPOLYLINE
5
139
100
AcDbEntity
8
0
100
AcDbPolyline
90
4
70
1
43
0.0
10
283.79510961214169
20
-61.897869977558543
42
-2.0666666666666758
10
293.20489038785831
20
-61.897869977558592
42
0.3478260869565224
10
293.20489038785831
20
-77.450989707743872
42
-2.0666666666666891
10
283.79510961214169
20
-77.450989707743886
42
0.34782608695652462
0
CIRCLE
5
140
100
AcDbEntity
8
0
100
AcDbCircle
10
31.499999999999986
20
78.825570157348807
30
0
40
2.0000000000000013
210
-0
220
0
230
1
0
CIRCLE
5
141
100
AcDbEntity
8
0
100
AcDbCircle
10
31.499999999999986
20
78.825570157348807
30
0
40
5.0000000000000018
210
0
220
0
230
1
0
ENDSEC
0
SECTION
2
OBJECTS
0
DICTIONARY
5
C
100
AcDbDictionary
3
ACAD_GROUP
350
D
3
ACAD_MLINESTYLE
350
17
0
DICTIONARY
5
D
100
AcDbDictionary
0
DICTIONARY
5
1A
330
C
100
AcDbDictionary
0
DICTIONARY
5
17
100
AcDbDictionary
0
ENDSEC
0
EOF
